<svg id="_3" data-name="3" xmlns="http://www.w3.org/2000/svg" xmlns:xlink="http://www.w3.org/1999/xlink" width="50" height="50" viewBox="0 0 50 50">
  <defs>
    <clipPath id="clip-path">
      <path id="Combined_Shape" data-name="Combined Shape" d="M9,13H9c-.047,0-4.694-.045-6.12-.185-.069-.013-.151-.023-.246-.035a2.622,2.622,0,0,1-1.739-.755A4.092,4.092,0,0,1,.18,10.19,28.89,28.89,0,0,1,0,7.2V5.8A28.94,28.94,0,0,1,.18,2.8,4.1,4.1,0,0,1,.895.97,2.448,2.448,0,0,1,2.586.2L2.7.187C5.188,0,8.959,0,9,0H9c.038,0,3.808,0,6.3.187L15.414.2A2.446,2.446,0,0,1,17.1.97,4.09,4.09,0,0,1,17.82,2.8,28.89,28.89,0,0,1,18,5.8V7.2a28.94,28.94,0,0,1-.18,2.992,4.093,4.093,0,0,1-.715,1.834,2.451,2.451,0,0,1-1.688.771l-.116.012C12.805,12.993,9.038,13,9,13ZM7.141,3.7V8.9L12,6.31Z"/>
    </clipPath>
  </defs>
  <circle id="Oval" cx="25" cy="25" r="25" fill="#262626"/>
  <g id="Youtube" transform="translate(16 19)">
    <path id="Combined_Shape-2" data-name="Combined Shape" d="M9,13H9c-.047,0-4.694-.045-6.12-.185-.069-.013-.151-.023-.246-.035a2.622,2.622,0,0,1-1.739-.755A4.092,4.092,0,0,1,.18,10.19,28.89,28.89,0,0,1,0,7.2V5.8A28.94,28.94,0,0,1,.18,2.8,4.1,4.1,0,0,1,.895.97,2.448,2.448,0,0,1,2.586.2L2.7.187C5.188,0,8.959,0,9,0H9c.038,0,3.808,0,6.3.187L15.414.2A2.446,2.446,0,0,1,17.1.97,4.09,4.09,0,0,1,17.82,2.8,28.89,28.89,0,0,1,18,5.8V7.2a28.94,28.94,0,0,1-.18,2.992,4.093,4.093,0,0,1-.715,1.834,2.451,2.451,0,0,1-1.688.771l-.116.012C12.805,12.993,9.038,13,9,13ZM7.141,3.7V8.9L12,6.31Z"/>
    <g id="Youtube-2" data-name="Youtube" clip-path="url(#clip-path)">
      <rect id="color" width="30" height="30" transform="translate(-6 -9)" fill="#fff"/>
    </g>
  </g>
</svg>
