<svg id="address_icon" xmlns="http://www.w3.org/2000/svg" xmlns:xlink="http://www.w3.org/1999/xlink" width="29.139" height="34.438" viewBox="0 0 29.139 34.438">
  <defs>
    <clipPath id="clip-path">
      <path id="Clip_4" data-name="Clip 4" d="M0,0H29.139V34.438H0Z"/>
    </clipPath>
  </defs>
  <path id="Fill_1" data-name="Fill 1" d="M5.74,11.479a5.74,5.74,0,1,1,5.74-5.738A5.745,5.745,0,0,1,5.74,11.479Zm0-8.831a3.091,3.091,0,1,0,3.09,3.093A3.1,3.1,0,0,0,5.74,2.648Z" transform="translate(8.832 8.831)" fill="#fff"/>
  <g id="address" transform="translate(0)">
    <g id="address_icon-2" data-name="address_icon" clip-path="url(#clip-path)">
      <path id="Fill_3" data-name="Fill 3" d="M14.571,34.439C11.4,34.439,0,24.634,0,14.682A14.643,14.643,0,0,1,14.571,0,14.642,14.642,0,0,1,29.14,14.682C29.14,24.634,17.739,34.439,14.571,34.439Zm0-31.789A11.991,11.991,0,0,0,2.65,14.682c0,8.479,9.939,16.664,11.921,17.1,1.981-.439,11.921-8.628,11.921-17.1A11.991,11.991,0,0,0,14.571,2.65Z" transform="translate(-0.001 0)" fill="#fff"/>
    </g>
  </g>
</svg>
