<svg xmlns="http://www.w3.org/2000/svg" width="209" height="59.556" viewBox="0 0 209 59.556">
  <g id="logo2" transform="translate(-107.168 -75.989)">
    <path id="Path_1338" data-name="Path 1338" d="M144.974,70.677c.187.085.368.177.547.277a4.833,4.833,0,0,1,2.336,2.887,17.375,17.375,0,0,1,.447,4.432c.05,1.673,0,3.345-.018,5.017q0,.374-.008.748c0,.2,0,.4,0,.6v.047c-.014,3.4-.053,6.8-.068,10.2q0,1.071,0,2.142v.093q0,10.241,0,20.48,0,2.149,0,4.3a6.913,6.913,0,0,1-2.451,5.288,5.674,5.674,0,0,1-8.392-1.428c-1.2-1.928-1.2-4.321-1.272-6.517-.055-1.6-.045-3.21-.044-4.812,0-2.263.076-4.524.088-6.787,0-.671,0-1.341-.008-2.012,0-.307-.019-.616-.021-.925a2.847,2.847,0,0,0-.048-.843.362.362,0,0,0-.166-.235.333.333,0,0,0-.246,0,1.986,1.986,0,0,0-.8.671c-.754.9-1.587,1.719-2.412,2.552q-1.691,1.713-3.372,3.437c-2.223,2.269-4.447,4.537-6.718,6.758-1.14,1.115-2.328,2.181-3.465,3.3-2.377,2.346-4.688,4.759-7.076,7.094a5.62,5.62,0,0,1-6.053.719,6.493,6.493,0,0,1-3.363-3.556,5.405,5.405,0,0,1,.782-5.148,22.136,22.136,0,0,1,2.287-2.338c.811-.822,1.61-1.666,2.427-2.485q7.266-7.276,14.544-14.539c.859-.859.862-.88.024-1.716-4.986-4.974-9.957-9.963-14.971-14.907-1.123-1.107-2.28-2.181-3.418-3.276A5.926,5.926,0,0,1,106.54,70.2,6.47,6.47,0,0,1,112,71.348c.351.289.638.642.962.954,5.125,4.939,10.093,10.035,15.142,15.052.8.791,1.684,1.5,2.441,2.314,1.163,1.247,2.485,2.34,3.564,3.668.423.519,1.044.83,1.507,1.317.28.293.475.166.515-.212a6.762,6.762,0,0,0,.011-.722V83.512c0-1.6.06-3.2,0-4.788a16.119,16.119,0,0,1,.314-4.491,5.256,5.256,0,0,1,1.7-2.863A6.4,6.4,0,0,1,144.974,70.677Z" transform="translate(5.119 6.797)" fill="#04c9d2"/>
    <path id="Path_1339" data-name="Path 1339" d="M884.769,200.573c-.1-.042-.186-.085-.278-.135a2.433,2.433,0,0,1-1.2-1.437,8.714,8.714,0,0,1-.264-2.233c-.04-.844-.032-1.687-.034-2.532,0-.125,0-.252,0-.376,0-.1,0-.205,0-.306v-.024c-.022-1.715-.032-3.432-.055-5.147,0-.359-.01-.721-.016-1.08v-.048q-.09-5.166-.179-10.332c-.012-.723-.024-1.447-.034-2.169a3.49,3.49,0,0,1,1.191-2.689,2.864,2.864,0,0,1,4.248.647,6.5,6.5,0,0,1,.7,3.277c.042.808.049,1.62.064,2.429.02,1.141,0,2.283.014,3.424,0,.337.01.677.022,1.014.006.155.014.312.018.466a1.441,1.441,0,0,0,.032.425.193.193,0,0,0,.085.117.171.171,0,0,0,.125,0,1.007,1.007,0,0,0,.4-.346c.373-.46.787-.879,1.195-1.308.56-.586,1.115-1.175,1.671-1.763,1.1-1.165,2.205-2.328,3.331-3.468.565-.572,1.157-1.119,1.721-1.7,1.179-1.2,2.324-2.441,3.509-3.641a2.84,2.84,0,0,1,3.049-.415,3.291,3.291,0,0,1,1.729,1.765,2.728,2.728,0,0,1-.349,2.6,10.964,10.964,0,0,1-1.133,1.2c-.4.421-.8.855-1.2,1.274q-3.6,3.734-7.214,7.463c-.427.441-.427.451,0,.866,2.561,2.465,5.111,4.941,7.686,7.392.575.547,1.169,1.08,1.753,1.624a2.99,2.99,0,0,1-1.167,5.07,3.264,3.264,0,0,1-2.767-.534c-.181-.143-.328-.318-.494-.472-2.63-2.448-5.182-4.976-7.773-7.461-.411-.393-.864-.742-1.253-1.145-.6-.619-1.274-1.159-1.83-1.82-.218-.258-.534-.411-.772-.65-.143-.145-.24-.079-.258.111a3.647,3.647,0,0,0,0,.365q.044,2.575.089,5.151c.014.806,0,1.614.042,2.416a8.114,8.114,0,0,1-.119,2.269,2.637,2.637,0,0,1-.836,1.459A3.231,3.231,0,0,1,884.769,200.573Z" transform="translate(-618.735 -80.371)" fill="#04c9d2"/>
    <path id="Path_1340" data-name="Path 1340" d="M411.182,177.54c.34-.893.67-1.794,1.025-2.684.585-1.468,1.135-2.963,2.684-3.665a2.936,2.936,0,0,1,2.247-.108,3.351,3.351,0,0,1,1.608,1.495,9.941,9.941,0,0,1,.812,2.08q1.18,3.85,2.421,7.684.621,1.937,1.247,3.873a29,29,0,0,0,1.2,3.613.584.584,0,0,0,.244.3.413.413,0,0,0,.442-.094,1.078,1.078,0,0,0,.248-.4c.775-1.861,1.277-3.887,1.914-5.8.6-1.8,1.273-3.578,1.8-5.4.3-1.037.605-2.073.951-3.1a10.82,10.82,0,0,1,1.218-2.935,3.466,3.466,0,0,1,3.412-1.346,3.165,3.165,0,0,1,2.458,3.016,7.934,7.934,0,0,1-.666,3.355c-2.245,5.937-3.785,12.137-5.906,18.131-.934,2.643-2.078,6.359-5.446,6.517-2.186.1-3.686-1.311-4.581-3.179a46.492,46.492,0,0,1-2.381-7.6q-.429-1.517-.889-3.028c-.146-.476-.29-.954-.455-1.423-.087-.243-.158-.493-.234-.739a3.009,3.009,0,0,1-.231-.741,1.258,1.258,0,0,0-.266-.51.452.452,0,0,0-.229-.138c-.243-.053-.4.189-.476.386-.445,1.226-.67,2.517-1.039,3.767-.384,1.3-.808,2.588-1.252,3.867-.452,1.3-.926,2.6-1.4,3.889a19.879,19.879,0,0,1-1.226,3.083,4.149,4.149,0,0,1-1.819,1.767,4.9,4.9,0,0,1-4.725-.422,5.3,5.3,0,0,1-1.794-2.786q-.71-1.952-1.411-3.9-1.4-3.909-2.761-7.83c-.7-2.024-1.388-4.059-2.113-6.071a44.591,44.591,0,0,1-1.646-4.589c-.52-2.176-.006-4.579,2.4-5.194a3.96,3.96,0,0,1,4.9,2.837c.637,1.883,1.157,3.8,1.772,5.693q.964,2.96,1.865,5.939a18.577,18.577,0,0,0,1.124,3.542c.1.181.238.374.442.4a.485.485,0,0,0,.418-.2,5.372,5.372,0,0,0,.532-1.665C408.743,183.978,409.956,180.755,411.182,177.54Z" transform="translate(-235.429 -79.943)" fill="#04c9d2"/>
    <path id="Path_1341" data-name="Path 1341" d="M774.6,203.974a4.455,4.455,0,0,1-1.062.252,63.853,63.853,0,0,1-7.187.152c-2.7,0-5.4-.034-8.1-.034-.361,0-.723,0-1.084,0-1.547.006-3-.321-3.729-1.865a6.612,6.612,0,0,1-.361-2.99c.051-2.206.006-4.411-.024-6.617-.028-2.129.071-4.26.038-6.387-.043-2.716-.1-5.433.068-8.145q.038-.624.091-1.244a2.7,2.7,0,0,1,2.308-2.4,27.105,27.105,0,0,1,3.9-.13l8.233-.071c1.319-.012,2.639-.051,3.958-.016,1.359.037,3.2,0,4.226,1.059a2.735,2.735,0,0,1,.479,2.746,3.054,3.054,0,0,1-2.748,1.8,40.91,40.91,0,0,1-5.062.1c-2.012-.02-4.025-.041-6.038-.037-1.384,0-1.587.213-1.591,1.607,0,1.084-.02,2.166,0,3.25s.327,1.419,1.421,1.415c1.924-.006,3.87-.081,5.787,0a47.757,47.757,0,0,1,5.137.087,2.884,2.884,0,0,1,2.222,1.8c.895,2.35-1.26,3.663-3.312,3.661q-4.926,0-9.853-.006c-1.163,0-1.387.215-1.4,1.366-.016,1.378.022,2.758-.016,4.137-.024.909.4,1.212,1.257,1.206,3.126-.02,6.239-.034,9.364-.032a7.176,7.176,0,0,1,3.928.763,2.6,2.6,0,0,1-.855,4.563Z" transform="translate(-517.667 -83.883)" fill="#04c9d2"/>
    <path id="Path_1342" data-name="Path 1342" d="M1039.469,203.974a4.455,4.455,0,0,1-1.062.252,63.853,63.853,0,0,1-7.187.152c-2.7,0-5.4-.034-8.1-.034-.361,0-.723,0-1.084,0-1.548.006-3-.321-3.73-1.865a6.617,6.617,0,0,1-.361-2.99c.051-2.206.006-4.411-.023-6.617-.027-2.129.071-4.26.037-6.387-.043-2.716-.1-5.433.068-8.145q.038-.624.091-1.244a2.7,2.7,0,0,1,2.308-2.4,27.1,27.1,0,0,1,3.9-.13l8.233-.071c1.319-.012,2.639-.051,3.958-.016,1.359.037,3.2,0,4.226,1.059a2.733,2.733,0,0,1,.479,2.746,3.053,3.053,0,0,1-2.748,1.8,40.911,40.911,0,0,1-5.062.1c-2.013-.02-4.026-.041-6.038-.037-1.384,0-1.587.213-1.591,1.607,0,1.084-.02,2.166,0,3.25s.327,1.419,1.421,1.415c1.924-.006,3.869-.081,5.787,0a47.755,47.755,0,0,1,5.137.087,2.885,2.885,0,0,1,2.222,1.8c.895,2.35-1.26,3.663-3.312,3.661q-4.926,0-9.853-.006c-1.163,0-1.387.215-1.4,1.366-.016,1.378.021,2.758-.016,4.137-.024.909.4,1.212,1.257,1.206,3.126-.02,6.239-.034,9.363-.032a7.175,7.175,0,0,1,3.928.763,2.6,2.6,0,0,1-.855,4.563Z" transform="translate(-725.234 -83.883)" fill="#04c9d2"/>
    <path id="Path_1343" data-name="Path 1343" d="M644.947,203.983a4.464,4.464,0,0,1-1.062.252,63.867,63.867,0,0,1-7.187.152c-2.7,0-5.4-.034-8.1-.034-.361,0-.723,0-1.084,0-1.547.006-3-.321-3.729-1.865a6.605,6.605,0,0,1-.361-2.99c.051-2.206.006-4.411-.024-6.617-.027-2.129.071-4.26.038-6.387-.044-2.716-.1-5.433.068-8.145q.038-.624.091-1.244a2.7,2.7,0,0,1,2.308-2.4,17.929,17.929,0,0,1,3.034-.116c1.009.018,2.021,0,3.03-.012h.061c1.585-.024,3.166-.051,4.748-.051,1.739,0,3.477-.083,5.218-.034,1.359.037,3.2,0,4.226,1.059a2.735,2.735,0,0,1,.479,2.746,3.054,3.054,0,0,1-2.748,1.8,40.912,40.912,0,0,1-5.062.1c-2.013-.02-4.025-.041-6.038-.037-1.384,0-1.587.213-1.591,1.606,0,1.084-.02,2.166,0,3.25s.327,1.419,1.421,1.415c1.924-.006,3.87-.081,5.787,0a47.76,47.76,0,0,1,5.137.087,2.885,2.885,0,0,1,2.222,1.8c.895,2.35-1.26,3.663-3.312,3.661q-4.926,0-9.853-.006c-1.163,0-1.388.215-1.4,1.366-.016,1.378.022,2.758-.016,4.138-.024.909.4,1.212,1.257,1.207,3.126-.02,6.239-.034,9.363-.032a7.175,7.175,0,0,1,3.929.763,2.593,2.593,0,0,1-.855,4.56Z" transform="translate(-416.601 -83.894)" fill="#04c9d2"/>
    <path id="Path_1344" data-name="Path 1344" d="M386.47,100.93a.977.977,0,0,0,.04.15.648.648,0,0,1,.022.223c0,.187.008.376.022.564a3.057,3.057,0,0,1,.01.71" transform="translate(-217.242 -24.941)" fill="#04c9d2"/>
  </g>
</svg>
