<svg xmlns="http://www.w3.org/2000/svg" xmlns:xlink="http://www.w3.org/1999/xlink" width="36.204" height="36.204" viewBox="0 0 36.204 36.204">
  <defs>
    <clipPath id="clip-path">
      <path id="Clip_2" data-name="Clip 2" d="M0,0H36.2V36.2H0Z" transform="translate(0)" fill="#fff"/>
    </clipPath>
  </defs>
  <g id="phone_icon" clip-path="url(#clip-path)">
    <path id="Fill_1" data-name="Fill 1" d="M27.533,36.2h-.049c-4.4,0-10.14-3.505-17.056-10.419C3.481,18.842-.027,13.086,0,8.679A6.584,6.584,0,0,1,2.117,3.712c.032-.039.137-.141.169-.172C4.8,1.026,6.5,0,8.177,0h.047C10.2.027,11.6,1.5,13.377,3.373l.107.113c.42.441.853.9,1.342,1.383,2.58,2.58,1.844,4.682,1.253,6.371-.642,1.842-1.2,3.433,2.133,6.762,1.812,1.811,3.232,2.618,4.606,2.618a6.381,6.381,0,0,0,2.152-.492,7.812,7.812,0,0,1,2.583-.571,5.328,5.328,0,0,1,3.788,1.821c.432.434.842.825,1.237,1.2l.238.227C34.7,24.593,36.179,26,36.2,27.983c.021,1.685-1,3.4-3.533,5.937l-1.119-.76.946.925A6.579,6.579,0,0,1,27.533,36.2ZM4.164,5.409c-.013.016-.1.1-.194.2A3.968,3.968,0,0,0,2.648,8.693C2.635,11.222,4.3,15.915,12.3,23.912c7.973,7.97,12.657,9.643,15.183,9.643h.037A3.984,3.984,0,0,0,30.6,32.237c.113-.116.221-.218.3-.289,1.769-1.778,2.661-3.1,2.651-3.931-.013-.864-1.083-1.881-2.565-3.29l-.066-.063c-.463-.442-.943-.9-1.458-1.414a2.739,2.739,0,0,0-1.93-1.043,5.429,5.429,0,0,0-1.691.422,8.846,8.846,0,0,1-3.023.646c-2.075,0-4.2-1.113-6.484-3.4-4.509-4.5-3.5-7.4-2.761-9.507.534-1.525.778-2.222-.625-3.624-.532-.529-1.02-1.043-1.451-1.5L11.459,5.2c-1.4-1.474-2.412-2.538-3.268-2.549H8.176c-.846,0-2.161.9-4.02,2.762Z" transform="translate(0 -0.001)" fill="#fff"/>
  </g>
</svg>
