<svg id="_2" data-name="2" xmlns="http://www.w3.org/2000/svg" xmlns:xlink="http://www.w3.org/1999/xlink" width="50" height="50" viewBox="0 0 50 50">
  <defs>
    <clipPath id="clip-path">
      <path id="Shape" d="M7.051,3.192l.031.519-.525-.064A8.533,8.533,0,0,1,1.563,1.19L.871.5.692,1.01a3.057,3.057,0,0,0,.651,3.135c.42.445.325.508-.4.244a1.237,1.237,0,0,0-.493-.117A3.8,3.8,0,0,0,.829,5.692,3.388,3.388,0,0,0,2.266,7.048l.514.244L2.172,7.3c-.588,0-.609.011-.546.233A3.172,3.172,0,0,0,3.588,9.272l.651.222-.567.339a5.907,5.907,0,0,1-2.812.784A3.107,3.107,0,0,0,0,10.7a7.982,7.982,0,0,0,2.025.932,8.863,8.863,0,0,0,6.883-.784A9.211,9.211,0,0,0,12.4,6.741a10.926,10.926,0,0,0,.713-3.178c0-.487.031-.551.619-1.133a6.917,6.917,0,0,0,.734-.816c.1-.2.094-.2-.441-.021-.892.318-1.018.275-.577-.2A3.081,3.081,0,0,0,14.164.258c0-.032-.157.021-.336.117a5.853,5.853,0,0,1-.923.36l-.567.18-.514-.35A4.271,4.271,0,0,0,10.933.1,3.584,3.584,0,0,0,9.1.142,3.033,3.033,0,0,0,7.051,3.192Z" transform="translate(0.5)"/>
    </clipPath>
  </defs>
  <circle id="Oval" cx="25" cy="25" r="25" fill="#262626"/>
  <g id="Twitter" transform="translate(17 19)">
    <path id="Shape-2" data-name="Shape" d="M7.051,3.192l.031.519-.525-.064A8.533,8.533,0,0,1,1.563,1.19L.871.5.692,1.01a3.057,3.057,0,0,0,.651,3.135c.42.445.325.508-.4.244a1.237,1.237,0,0,0-.493-.117A3.8,3.8,0,0,0,.829,5.692,3.388,3.388,0,0,0,2.266,7.048l.514.244L2.172,7.3c-.588,0-.609.011-.546.233A3.172,3.172,0,0,0,3.588,9.272l.651.222-.567.339a5.907,5.907,0,0,1-2.812.784A3.107,3.107,0,0,0,0,10.7a7.982,7.982,0,0,0,2.025.932,8.863,8.863,0,0,0,6.883-.784A9.211,9.211,0,0,0,12.4,6.741a10.926,10.926,0,0,0,.713-3.178c0-.487.031-.551.619-1.133a6.917,6.917,0,0,0,.734-.816c.1-.2.094-.2-.441-.021-.892.318-1.018.275-.577-.2A3.081,3.081,0,0,0,14.164.258c0-.032-.157.021-.336.117a5.853,5.853,0,0,1-.923.36l-.567.18-.514-.35A4.271,4.271,0,0,0,10.933.1,3.584,3.584,0,0,0,9.1.142,3.033,3.033,0,0,0,7.051,3.192Z" transform="translate(0.5)"/>
    <g id="Twitter-2" data-name="Twitter" clip-path="url(#clip-path)">
      <rect id="color" width="30" height="30" transform="translate(-7 -9)" fill="#fff"/>
    </g>
  </g>
</svg>
