<svg id="_1" data-name="1" xmlns="http://www.w3.org/2000/svg" xmlns:xlink="http://www.w3.org/1999/xlink" width="50" height="50" viewBox="0 0 50 50">
  <defs>
    <clipPath id="clip-path">
      <path id="Shape" d="M5.063,16.32V8.159H7.316l.3-2.812H5.063l0-1.408c0-.733.07-1.126,1.123-1.126H7.6V0H5.346C2.639,0,1.687,1.364,1.687,3.658V5.347H0V8.159H1.687v8.16Z" transform="translate(0 0.5)"/>
    </clipPath>
  </defs>
  <circle id="Oval" cx="25" cy="25" r="25" fill="#262626"/>
  <g id="Facebook" transform="translate(21 16)">
    <path id="Shape-2" data-name="Shape" d="M5.063,16.32V8.159H7.316l.3-2.812H5.063l0-1.408c0-.733.07-1.126,1.123-1.126H7.6V0H5.346C2.639,0,1.687,1.364,1.687,3.658V5.347H0V8.159H1.687v8.16Z" transform="translate(0 0.5)"/>
    <g id="Facebook-2" data-name="Facebook" clip-path="url(#clip-path)">
      <rect id="color" width="30" height="30" transform="translate(-11 -6)" fill="#fff"/>
    </g>
  </g>
</svg>
