<svg id="email_icon" xmlns="http://www.w3.org/2000/svg" xmlns:xlink="http://www.w3.org/1999/xlink" width="37.97" height="34.438" viewBox="0 0 37.97 34.438">
  <defs>
    <clipPath id="clip-path">
      <path id="Clip_4" data-name="Clip 4" d="M0,0H37.97V34.438H0Z" fill="#fff"/>
    </clipPath>
  </defs>
  <path id="Fill_1" data-name="Fill 1" d="M11.759,9.915A5.372,5.372,0,0,1,8.415,8.744L.494,2.358A1.324,1.324,0,1,1,2.156.295l7.914,6.379a2.726,2.726,0,0,0,3.4-.007L21.3.3a1.325,1.325,0,1,1,1.672,2.056L15.124,8.733A5.4,5.4,0,0,1,11.759,9.915Z" transform="translate(7.273 10.333)" fill="#fff"/>
  <g id="Group_5" data-name="Group 5" transform="translate(0)">
    <g id="Clip_4-2" data-name="Clip 4" clip-path="url(#clip-path)">
      <path id="Fill_3" data-name="Fill 3" d="M27.684,34.439h-17.4a9.755,9.755,0,0,1-7.038-2.861A11.549,11.549,0,0,1,0,23.292V11.161C0,4.8,4.435,0,10.316,0H27.655c5.881,0,10.316,4.8,10.316,11.161V23.292a11.554,11.554,0,0,1-3.244,8.286A9.76,9.76,0,0,1,27.684,34.439Zm-.022-2.651h.022A7.153,7.153,0,0,0,32.856,29.7a8.918,8.918,0,0,0,2.465-6.409V11.161c0-4.932-3.224-8.512-7.666-8.512H10.316c-4.442,0-7.666,3.58-7.666,8.512V23.292A8.924,8.924,0,0,0,5.115,29.7a7.153,7.153,0,0,0,5.172,2.089H27.661Z" transform="translate(0 0)" fill="#fff"/>
    </g>
  </g>
</svg>
